<svg width="190" height="147" viewBox="0 0 190 147" fill="none" xmlns="http://www.w3.org/2000/svg">
<g filter="url(#filter0_d_2_2)">
<path d="M70.7078 122.594C52.9683 133.218 29.8929 127.43 19.2685 109.691C8.64378 91.9516 14.4316 68.8761 32.1711 58.2513C49.9106 47.6265 72.986 53.4149 83.6108 71.1544C94.2352 88.8932 88.4473 111.969 70.7078 122.594ZM33.564 60.5769C17.1069 70.4337 11.7377 91.8414 21.5942 108.298C31.4505 124.755 52.858 130.125 69.3151 120.268C85.7719 110.412 91.1417 89.0041 81.2851 72.5473C71.4284 56.0902 50.0208 50.7204 33.564 60.5769Z" fill="#424242"/>
<path d="M26.7622 105.203L24.4365 106.596C15.5184 91.7058 20.3765 72.3369 35.2662 63.419L36.6591 65.7446C23.052 73.8943 18.6122 91.5955 26.7622 105.203Z" fill="#424242"/>
<path d="M67.6125 117.426L66.2196 115.1C79.8267 106.95 84.2671 89.25 76.1171 75.6426L78.4428 74.2496C87.3604 89.1388 82.502 108.508 67.6125 117.426Z" fill="#424242"/>
<path d="M31.9301 102.108L29.6045 103.501C22.3933 91.4605 26.3216 75.7984 38.3617 68.5872L39.7546 70.9129C28.9972 77.3558 25.4868 91.3496 31.9301 102.108Z" fill="#424242"/>
<path d="M64.5173 112.258L63.1244 109.932C73.8817 103.489 77.3925 89.4958 70.9492 78.7378L73.2748 77.3449C80.4855 89.3848 76.5573 105.046 64.5173 112.258Z" fill="#424242"/>
<path d="M37.0984 99.0122L34.7728 100.405C29.2684 91.2148 32.2669 79.2594 41.4569 73.7552L42.8498 76.0808C34.9419 80.8172 32.3621 91.1042 37.0984 99.0122Z" fill="#424242"/>
<path d="M61.422 107.09L60.0291 104.764C67.9371 100.028 70.5171 89.741 65.7811 81.8336L68.1068 80.4407C73.6111 89.6302 70.6117 101.586 61.422 107.09Z" fill="#424242"/>
<path d="M58.3266 101.921C51.9863 105.719 43.7384 103.65 39.9408 97.3098C36.143 90.9689 38.2119 82.7206 44.5522 78.9232C50.8928 75.1256 59.1408 77.1947 62.9386 83.5356C66.7362 89.8762 64.6672 98.1237 58.3266 101.921ZM45.9451 81.2488C40.8872 84.2782 39.2367 90.8583 42.2664 95.9169C45.2958 100.975 51.8759 102.625 56.9339 99.596C61.9921 96.5664 63.6423 89.9865 60.613 84.9285C57.5832 79.87 51.0034 78.2192 45.9451 81.2488Z" fill="#424242"/>
<path d="M52.0353 88.4862L49.4513 90.0339L50.844 92.3592L53.428 90.8116L52.0353 88.4862Z" fill="#424242"/>
<path d="M54.2129 108.135L51.5835 107.476L50.4109 112.151L53.0403 112.81L54.2129 108.135Z" fill="#424242"/>
<path d="M53.8727 121.869L45.4011 119.744L47.8189 110.103L56.2913 112.229L53.8727 121.869ZM48.6898 117.775L51.903 118.581L53.0027 114.199L49.7887 113.392L48.6898 117.775Z" fill="#424242"/>
<path d="M53.8727 121.869L45.4011 119.744L47.8189 110.103L56.2913 112.229L53.8727 121.869ZM48.6898 117.775L51.903 118.581L53.0027 114.199L49.7887 113.392L48.6898 117.775Z" fill="#424242"/>
<path d="M48.2132 132.053L37.9303 138.212L36.5376 135.887L45.8573 130.305L48.6519 119.162L51.2807 119.822L48.2132 132.053Z" fill="#424242"/>
</g>
<g filter="url(#filter1_d_2_2)">
<path d="M97.0176 79.8119L85.0595 59.8463L92.9366 55.1285C94.4444 54.2254 95.8928 53.7244 97.2817 53.6254C98.6733 53.5161 99.9424 53.7847 101.089 54.4314C102.238 55.0676 103.208 56.0454 103.998 57.3647C104.793 58.6906 105.19 60.0024 105.19 61.3004C105.186 62.5918 104.794 63.816 104.012 64.973C103.237 66.1261 102.082 67.162 100.548 68.0807L95.2743 71.2395L93.2423 67.8469L97.834 65.0968C98.6399 64.6141 99.2432 64.1027 99.6437 63.5625C100.044 63.0224 100.242 62.4535 100.238 61.8558C100.239 61.2543 100.044 60.6253 99.6505 59.9689C99.2534 59.3059 98.7854 58.8268 98.2465 58.5315C97.714 58.2322 97.108 58.1271 96.4284 58.2163C95.7515 58.295 95.0068 58.5776 94.1944 59.0642L91.3477 60.7692L101.239 77.2837L97.0176 79.8119ZM102.358 64.2682L112.762 70.3821L108.102 73.1731L97.8052 66.995L102.358 64.2682ZM119.395 66.7936C118.439 67.3658 117.489 67.71 116.543 67.8262C115.593 67.9359 114.704 67.793 113.875 67.3973C113.049 66.9913 112.34 66.2944 111.749 65.3065C111.25 64.4746 110.985 63.6845 110.951 62.9361C110.918 62.1877 111.062 61.4836 111.382 60.8239C111.702 60.1641 112.144 59.546 112.709 58.9696C113.279 58.3893 113.914 57.8415 114.612 57.3263C115.428 56.7137 116.08 56.2088 116.566 55.8116C117.048 55.4079 117.361 55.0528 117.504 54.7463C117.647 54.4398 117.623 54.1273 117.433 53.8089L117.398 53.7504C117.028 53.1329 116.547 52.772 115.954 52.6676C115.369 52.5593 114.721 52.7173 114.013 53.1416C113.266 53.5893 112.77 54.1112 112.527 54.7073C112.279 55.297 112.232 55.8816 112.385 56.4612L108.357 58.4497C108.007 57.4231 107.92 56.407 108.095 55.4015C108.266 54.3896 108.696 53.4343 109.385 52.5358C110.077 51.6269 111.021 50.8143 112.217 50.0981C113.048 49.5998 113.903 49.2205 114.78 48.96C115.664 48.6956 116.524 48.5911 117.361 48.6463C118.204 48.6976 118.99 48.9419 119.72 49.379C120.446 49.8096 121.076 50.4701 121.609 51.3605L127.658 61.4603L123.72 63.8192L122.476 61.7427L122.359 61.8127C122.399 62.4247 122.324 63.0301 122.135 63.6289C121.943 64.2212 121.624 64.7874 121.179 65.3275C120.73 65.8612 120.136 66.3499 119.395 66.7936ZM118.867 63.2151C119.478 62.8492 119.946 62.4059 120.27 61.8852C120.59 61.3579 120.758 60.8065 120.776 60.231C120.793 59.6554 120.644 59.1045 120.329 58.578L119.377 56.989C119.298 57.1513 119.166 57.3363 118.981 57.5441C118.799 57.7414 118.586 57.953 118.341 58.1789C118.093 58.3983 117.843 58.6144 117.591 58.8273C117.334 59.0336 117.102 59.2212 116.894 59.3899C116.45 59.7534 116.092 60.1221 115.822 60.496C115.551 60.87 115.395 61.2506 115.353 61.6377C115.307 62.0183 115.401 62.4036 115.635 62.7936C115.973 63.359 116.437 63.6686 117.025 63.7223C117.617 63.7657 118.231 63.5966 118.867 63.2151ZM135.336 36.5162L139.069 54.6258L134.39 57.4285L120.186 45.5898L124.573 42.9623L134.1 51.8136L134.256 51.7202L130.939 39.1495L135.336 36.5162ZM138.624 27.7645L150.582 47.7301L146.429 50.2175L134.471 30.2519L138.624 27.7645ZM159.693 33.6105L154.543 25.0121L158.696 22.5247L167.665 37.4989L163.678 39.887L162.049 37.1671L161.893 37.2605C162.08 38.3403 161.94 39.3822 161.473 40.3861C161.012 41.3862 160.22 42.2229 159.095 42.8963C158.095 43.4958 157.078 43.7958 156.045 43.7963C155.012 43.7967 154.03 43.5062 153.099 42.9248C152.174 42.3394 151.358 41.4637 150.651 40.2977L144.941 30.7634L149.094 28.276L154.36 37.0695C154.896 37.9495 155.552 38.506 156.327 38.7392C157.103 38.9724 157.884 38.8535 158.67 38.3825C159.171 38.0827 159.571 37.6887 159.87 37.2005C160.165 36.7057 160.31 36.151 160.304 35.5365C160.304 34.918 160.101 34.2761 159.693 33.6105ZM172.169 28.9465L169.195 23.959L169.8 23.597L171.192 15.0407L175.959 12.1855L174.023 23.5711L173.038 24.1608L172.169 28.9465ZM170.987 35.5093L159.029 15.5437L163.182 13.0563L175.14 33.0219L170.987 35.5093ZM180.346 29.904L172.033 26.0212L173.044 21.4285L185.21 26.9903L180.346 29.904Z" fill="#424242"/>
</g>
<defs>
<filter id="filter0_d_2_2" x="9.94781" y="52.9307" width="82.9834" height="93.2812" filterUnits="userSpaceOnUse" color-interpolation-filters="sRGB">
<feFlood flood-opacity="0" result="BackgroundImageFix"/>
<feColorMatrix in="SourceAlpha" type="matrix" values="0 0 0 0 0 0 0 0 0 0 0 0 0 0 0 0 0 0 127 0" result="hardAlpha"/>
<feOffset dy="4"/>
<feGaussianBlur stdDeviation="2"/>
<feComposite in2="hardAlpha" operator="out"/>
<feColorMatrix type="matrix" values="0 0 0 0 0 0 0 0 0 0 0 0 0 0 0 0 0 0 0.25 0"/>
<feBlend mode="normal" in2="BackgroundImageFix" result="effect1_dropShadow_2_2"/>
<feBlend mode="normal" in="SourceGraphic" in2="effect1_dropShadow_2_2" result="shape"/>
</filter>
<filter id="filter1_d_2_2" x="81.0595" y="7.02478" width="108.32" height="81.0698" filterUnits="userSpaceOnUse" color-interpolation-filters="sRGB">
<feFlood flood-opacity="0" result="BackgroundImageFix"/>
<feColorMatrix in="SourceAlpha" type="matrix" values="0 0 0 0 0 0 0 0 0 0 0 0 0 0 0 0 0 0 127 0" result="hardAlpha"/>
<feOffset dy="4"/>
<feGaussianBlur stdDeviation="2"/>
<feComposite in2="hardAlpha" operator="out"/>
<feColorMatrix type="matrix" values="0 0 0 0 0 0 0 0 0 0 0 0 0 0 0 0 0 0 0.25 0"/>
<feBlend mode="normal" in2="BackgroundImageFix" result="effect1_dropShadow_2_2"/>
<feBlend mode="normal" in="SourceGraphic" in2="effect1_dropShadow_2_2" result="shape"/>
</filter>
</defs>
</svg>
